HIERARCHY
ROOT Hips
{
	OFFSET 0.00000 0.00000 0.00000
	CHANNELS 6 Xposition Yposition Zposition Zrotation Yrotation Xrotation 
	JOINT LHipJoint
	{
		OFFSET 0 0 0
		CHANNELS 3 Zrotation Yrotation Xrotation
		JOINT LeftHip
		{
			OFFSET 1.81638 -1.86202 0.89635
			CHANNELS 3 Zrotation Yrotation Xrotation
			JOINT LeftKnee
			{
				OFFSET 2.63464 -7.23861 0.00000
				CHANNELS 3 Zrotation Yrotation Xrotation
				JOINT LeftAnkle
				{
					OFFSET 2.45871 -6.75336 0.00000
					CHANNELS 3 Zrotation Yrotation Xrotation
					JOINT LeftToe
					{
						OFFSET 0.34235 -0.94059 2.20020
						CHANNELS 3 Zrotation Yrotation Xrotation
						End Site
						{
							OFFSET 0.00000 -0.00000 1.18611
						}
					}
				}
			}
		}
	}
	JOINT RHipJoint
	{
		OFFSET 0 0 0
		CHANNELS 3 Zrotation Yrotation Xrotation
		JOINT RightHip
		{
			OFFSET -1.84405 -1.86203 0.89635
			CHANNELS 3 Zrotation Yrotation Xrotation
			JOINT RightKnee
			{
				OFFSET -2.71067 -7.44751 0.00000
				CHANNELS 3 Zrotation Yrotation Xrotation
				JOINT RightAnkle
				{
					OFFSET -2.47159 -6.79060 0.00000
					CHANNELS 3 Zrotation Yrotation Xrotation
					JOINT RightToe
					{
						OFFSET -0.26223 -0.72048 2.36007
						CHANNELS 3 Zrotation Yrotation Xrotation
						End Site
						{
							OFFSET -0.00000 -0.00000 1.23343
						}
					}
				}
			}
		}
	}
	JOINT lowerback
	{
		OFFSET 0 0 0
		CHANNELS 3 Zrotation Yrotation Xrotation
		JOINT Chest
		{
			OFFSET 0.02089 1.99248 -0.22512
			CHANNELS 3 Zrotation Yrotation Xrotation
			JOINT Chest2
			{
				OFFSET 0.01476 2.01356 -0.03079
				CHANNELS 3 Zrotation Yrotation Xrotation
				JOINT lowerneck
				{
					OFFSET 0 0 0
					CHANNELS 3 Zrotation Yrotation Xrotation
					JOINT Neck
					{
						OFFSET 0.04846 1.65098 0.06663
						CHANNELS 3 Zrotation Yrotation Xrotation
						JOINT Head
						{
							OFFSET -0.06061 1.60634 -0.07565
							CHANNELS 3 Zrotation Yrotation Xrotation
							End Site
							{
								OFFSET -0.02954 1.73562 -0.03642
							}
						}
					}
				}
				JOINT LeftCollar
				{
					OFFSET 0 0 0
					CHANNELS 3 Zrotation Yrotation Xrotation
					JOINT LeftShoulder
					{
						OFFSET 3.45234 1.47051 -0.06993
CHANNELS 3 Zrotation Xrotation Yrotation
						JOINT LeftElbow
						{
OFFSET 0 -5.493130 0.000000
CHANNELS 3 Zrotation Xrotation Yrotation
							JOINT LeftWrist
							{
OFFSET 0 -3.290370 0.000000
CHANNELS 3 Zrotation Xrotation Yrotation
								JOINT lhand
								{
									OFFSET 0 0 0
CHANNELS 3 Zrotation Xrotation Yrotation
									JOINT LFingers
									{
OFFSET 0 -0.729660 0.000000
CHANNELS 3 Zrotation Xrotation Yrotation
										End Site
										{
OFFSET 0 -0.588270 0.000000
										}
									}
								}
								JOINT LThumb
								{
OFFSET 0 0.000000 0.000000
CHANNELS 3 Zrotation Xrotation Yrotation
									End Site
									{
OFFSET 0 -0.597250 0.597250
									}
								}
							}
						}
					}
				}
				JOINT RightCollar
				{
					OFFSET 0 0 0
					CHANNELS 3 Zrotation Yrotation Xrotation
					JOINT RightShoulder
					{
						OFFSET -3.41935 1.44327 0.20453
CHANNELS 3 Zrotation Xrotation Yrotation
						JOINT RightElbow
						{
OFFSET 0 -5.236840 0.000000
CHANNELS 3 Zrotation Xrotation Yrotation
							JOINT RightWrist
							{
OFFSET 0 -3.382510 0.000000
CHANNELS 3 Zrotation Xrotation Yrotation
								JOINT rhand
								{
									OFFSET 0 0 0
CHANNELS 3 Zrotation Xrotation Yrotation
									JOINT RFingers
									{
OFFSET 0 -0.691450 0.000000
CHANNELS 3 Zrotation Xrotation Yrotation
										End Site
										{
OFFSET 0 -0.557470 0.000000
										}
									}
								}
								JOINT RThumb
								{
OFFSET 0 0.000000 0.000000
CHANNELS 3 Zrotation Xrotation Yrotation
									End Site
									{
OFFSET 0 -0.565980 0.565980
									}
								}
							}
						}
					}
				}
			}
		}
	}
}
MOTION
Frames: 12
Frame Time: 0.008333333333333333
-36.672800 17.579800 -3.722100 -21.238400 73.293800 -18.412700 0.000000 0.000000 0.000000 -9.370000 -0.233100 -24.668800 3.790600 11.876500 35.296400 0.522100 -1.532800 -13.206700 0.011200 0.683700 1.879000 0.000000 0.000000 0.000000 27.739700 -6.165000 12.110600 0.000000 0.000000 -0.000000 -0.292000 -10.594200 -18.904300 -0.001700 -0.267500 0.735000 1.897300 -1.245000 15.283500 3.011400 -0.957700 7.308900 2.228900 -0.338600 -0.809900 -0.689600 4.079700 -6.161200 -3.232200 6.250700 14.910100 -0.475900 2.836500 5.597300 -0.000000 -0.000000 0.000000 4.197700 7.527200 -20.959500 31.025300 -41.756200 12.086700 -1.278000 -2.127600 -12.196800 0.000000 0.000000 0.000000 -7.125000 0.000000 0.000000 -24.891300 40.789600 -2.781900 -0.000000 -0.000000 0.000000 -17.522900 4.996800 43.036000 -25.804700 -37.015300 -8.769800 -11.425100 3.667000 14.747800 0.000000 0.000000 0.000000 7.125000 0.000000 -0.000000 14.843300 44.488800 0.191600
-36.672559 17.580017 -3.723438 -21.080881 73.220055 -18.294516 0.000000 0.000000 0.000000 -9.389675 -0.180103 -24.600070 3.782553 11.865311 35.257098 0.522500 -1.503995 -13.217605 0.009648 0.635249 1.745678 0.000000 0.000000 0.000000 27.712356 -6.102349 12.171579 0.000000 0.000000 0.000000 -0.292162 -10.598261 -18.911055 -0.001941 -0.282778 0.776876 1.890286 -1.229658 15.282002 3.005701 -0.939469 7.300059 2.223962 -0.330000 -0.818967 -0.671116 4.073848 -6.179140 -3.243893 6.243624 14.926406 -0.482365 2.832779 5.606333 0.000000 0.000000 0.000000 4.190685 7.573838 -20.997373 30.999649 -41.734995 12.069593 -1.317371 -2.124636 -12.235485 0.000000 0.000000 0.000000 -7.125000 0.000000 0.000000 -24.937609 40.821040 -2.767001 0.000000 0.000000 0.000000 -17.514634 5.033597 43.062532 -25.820817 -37.031175 -8.779480 -10.900891 3.526520 14.785501 0.000000 0.000000 0.000000 7.125000 0.000000 0.000000 15.322008 44.465968 0.206906
-36.672500 17.580314 -3.725028 -20.903345 73.156509 -18.166158 0.000000 0.000000 0.000000 -9.426404 -0.121851 -24.523260 3.772055 11.850654 35.205739 0.522748 -1.494253 -13.223612 0.008675 0.600461 1.649974 0.000000 0.000000 0.000000 27.671908 -6.050521 12.238626 0.000000 0.000000 0.000000 -0.294922 -10.584953 -18.928060 -0.002000 -0.286833 0.787979 1.863028 -1.222932 15.294627 3.003709 -0.934446 7.289031 2.236863 -0.328510 -0.837043 -0.644184 4.080698 -6.158964 -3.287477 6.254896 14.903802 -0.500250 2.837448 5.598193 0.000000 0.000000 0.000000 4.166540 7.613060 -21.017163 30.955221 -41.698167 12.040014 -1.306468 -2.102122 -12.218334 0.000000 0.000000 0.000000 -7.125000 0.000000 0.000000 -24.922456 40.806439 -2.774745 0.000000 0.000000 0.000000 -17.518165 5.066032 43.108512 -25.846343 -37.056560 -8.794882 -10.497125 3.422931 14.894009 0.000000 0.000000 0.000000 7.125000 0.000000 0.000000 15.715416 44.525960 0.188647
-36.672924 17.580424 -3.726542 -20.653897 73.107633 -17.947537 0.000000 0.000000 0.000000 -9.498961 -0.067036 -24.479893 3.761206 11.835704 35.153149 0.534514 -1.288880 -13.425803 0.004461 0.429765 1.180827 0.000000 0.000000 0.000000 27.610920 -5.995408 12.281817 0.000000 0.000000 0.000000 -0.299281 -10.561465 -18.950665 -0.001152 -0.217897 0.598663 1.827982 -1.215769 15.291955 2.987523 -0.931632 7.266740 2.239357 -0.328485 -0.859032 -0.663852 4.075631 -6.170454 -3.276661 6.250845 14.932914 -0.493329 2.834652 5.608321 0.000000 0.000000 0.000000 4.175182 7.662038 -21.054216 30.927853 -41.675573 12.021869 -1.321836 -2.096944 -12.211324 0.000000 0.000000 0.000000 -7.125000 0.000000 0.000000 -24.932532 40.798714 -2.781179 0.000000 0.000000 0.000000 -17.475034 5.046968 43.105949 -25.791763 -37.002287 -8.762018 -10.237868 3.384243 14.945616 0.000000 0.000000 0.000000 7.125000 0.000000 0.000000 15.962275 44.546498 0.183502
-36.673000 17.580500 -3.727759 -20.467710 73.051262 -17.798765 0.000000 0.000000 0.000000 -9.543424 -0.008853 -24.424175 3.751832 11.822558 35.107186 0.541215 -1.192525 -13.537000 0.002678 0.334138 0.918077 0.000000 0.000000 0.000000 27.569720 -5.944546 12.336232 0.000000 0.000000 0.000000 -0.302609 -10.546142 -18.970976 -0.000803 -0.181385 0.498518 1.805690 -1.209632 15.289597 2.979620 -0.927944 7.250424 2.243068 -0.327631 -0.874920 -0.662716 4.075231 -6.158477 -3.289427 6.252612 14.939680 -0.497531 2.834894 5.608831 0.000000 0.000000 0.000000 4.175287 7.703399 -21.087087 30.898006 -41.650771 12.002036 -1.324184 -2.089813 -12.192742 0.000000 0.000000 0.000000 -7.125000 0.000000 0.000000 -24.927860 40.781633 -2.791937 0.000000 0.000000 0.000000 -17.444644 5.053346 43.112506 -25.771355 -36.982021 -8.749726 -9.950682 3.328996 15.013268 0.000000 0.000000 0.000000 7.125000 0.000000 0.000000 16.239343 44.579474 0.173251
-36.673000 17.580500 -3.728400 -20.317133 73.004261 -17.684961 0.000000 0.000000 0.000000 -9.577950 0.044402 -24.372671 3.744520 11.812507 35.071833 0.547887 -1.123984 -13.639965 0.001572 0.256213 0.704076 0.000000 0.000000 0.000000 27.538562 -5.906555 12.388145 0.000000 0.000000 0.000000 -0.305042 -10.537912 -18.989152 -0.000486 -0.141977 0.390087 1.788255 -1.208624 15.282353 2.974381 -0.930249 7.233678 2.247709 -0.329759 -0.888556 -0.658078 4.077038 -6.137038 -3.304701 6.257328 14.946294 -0.503156 2.836789 5.607944 0.000000 0.000000 0.000000 4.178909 7.743069 -21.118502 30.875259 -41.631899 11.986846 -1.325128 -2.084304 -12.187263 0.000000 0.000000 0.000000 -7.125000 0.000000 0.000000 -24.926589 40.776521 -2.795148 0.000000 0.000000 0.000000 -17.408258 5.061985 43.115305 -25.750734 -36.961441 -8.737300 -9.724163 3.291043 15.079181 0.000000 0.000000 0.000000 7.125000 0.000000 0.000000 16.461835 44.617374 0.159880
-36.672952 17.580452 -3.728255 -20.215414 72.972243 -17.623580 0.000000 0.000000 0.000000 -9.598138 0.086720 -24.317805 3.739202 11.805025 35.045712 0.553394 -1.095107 -13.717809 0.001055 0.210813 0.579196 0.000000 0.000000 0.000000 27.520249 -5.890328 12.440249 0.000000 0.000000 0.000000 -0.305697 -10.542014 -19.001576 -0.000252 -0.105745 0.290485 1.776069 -1.214311 15.271372 2.973042 -0.940606 7.219694 2.254753 -0.335621 -0.897118 -0.642448 4.082137 -6.110569 -3.327627 6.266292 14.952185 -0.512734 2.840849 5.606667 0.000000 0.000000 0.000000 4.185033 7.775125 -21.145524 30.859162 -41.618533 11.976208 -1.325113 -2.080054 -12.195579 0.000000 0.000000 0.000000 -7.125000 0.000000 0.000000 -24.929584 40.784133 -2.790541 0.000000 0.000000 0.000000 -17.368847 5.080243 43.117523 -25.739431 -36.950231 -8.730548 -9.562355 3.270859 15.143954 0.000000 0.000000 0.000000 7.125000 0.000000 0.000000 16.626785 44.661499 0.142948
-36.672900 17.580220 -3.727471 -20.152827 72.953269 -17.606816 0.000000 0.000000 0.000000 -9.607532 0.119382 -24.256711 3.734895 11.798918 35.024446 0.556637 -1.098173 -13.758426 0.000900 0.196216 0.538986 0.000000 0.000000 0.000000 27.511358 -5.893458 12.494559 0.000000 0.000000 0.000000 -0.304543 -10.558542 -19.007127 -0.000110 -0.077092 0.211729 1.766901 -1.224924 15.263268 2.975545 -0.956527 7.207006 2.264906 -0.344218 -0.905548 -0.623516 4.087972 -6.084123 -3.352487 6.276446 14.960946 -0.523326 2.845554 5.606459 0.000000 0.000000 0.000000 4.191242 7.801059 -21.166895 30.845727 -41.607374 11.967221 -1.322904 -2.074977 -12.201493 0.000000 0.000000 0.000000 -7.125000 0.000000 0.000000 -24.929831 40.789713 -2.786865 0.000000 0.000000 0.000000 -17.329601 5.109348 43.121723 -25.738507 -36.949307 -8.729988 -9.447744 3.264443 15.205580 0.000000 0.000000 0.000000 7.125000 0.000000 0.000000 16.748924 44.707978 0.124285
-36.672994 17.579675 -3.726350 -20.115250 72.947107 -17.620763 0.000000 0.000000 0.000000 -9.612318 0.139628 -24.189884 3.730926 11.793414 35.005217 0.559181 -1.110231 -13.786909 0.000800 0.187325 0.514681 0.000000 0.000000 0.000000 27.506720 -5.913651 12.550081 0.000000 0.000000 0.000000 -0.302938 -10.577182 -19.010044 -0.000069 -0.052804 0.145080 1.759677 -1.239416 15.258076 2.979755 -0.976995 7.196158 2.276641 -0.354941 -0.913555 -0.603716 4.092637 -6.058305 -3.375715 6.284637 14.970417 -0.533617 2.849437 5.606462 0.000000 0.000000 0.000000 4.198161 7.818454 -21.180617 30.835839 -41.599089 11.960670 -1.320738 -2.070751 -12.208486 0.000000 0.000000 0.000000 -7.125000 0.000000 0.000000 -24.930643 40.796193 -2.782613 0.000000 0.000000 0.000000 -17.289384 5.146804 43.128337 -25.744905 -36.955705 -8.733843 -9.395642 3.275076 15.252636 0.000000 0.000000 0.000000 7.125000 0.000000 0.000000 16.810688 44.747281 0.107990
-36.673418 17.578892 -3.725146 -20.087238 72.946962 -17.649721 0.000000 0.000000 0.000000 -9.615788 0.152556 -24.116993 3.726894 11.787823 34.985615 0.560454 -1.108630 -13.804160 0.000800 0.186148 0.511451 0.000000 0.000000 0.000000 27.502749 -5.942585 12.608156 0.000000 0.000000 0.000000 -0.300393 -10.600147 -19.006857 0.000000 -0.034414 0.094511 1.751961 -1.253907 15.254511 2.985350 -0.997285 7.188832 2.290089 -0.365401 -0.918569 -0.591181 4.093092 -6.036697 -3.390581 6.286700 14.980529 -0.540523 2.850400 5.606818 0.000000 0.000000 0.000000 4.205667 7.824725 -21.188332 30.828769 -41.593295 11.956004 -1.318349 -2.068446 -12.201151 0.000000 0.000000 0.000000 -7.125000 0.000000 0.000000 -24.926026 40.789740 -2.786329 0.000000 0.000000 0.000000 -17.247514 5.183981 43.130981 -25.750251 -36.961051 -8.737080 -9.386627 3.302314 15.277006 0.000000 0.000000 0.000000 7.125000 0.000000 0.000000 16.826787 44.769843 0.098459
-36.674084 17.577916 -3.724002 -20.048752 72.947576 -17.673261 0.000000 0.000000 0.000000 -9.622974 0.160413 -24.036958 3.722481 11.781585 34.963790 0.561740 -1.100466 -13.822561 0.000800 0.182904 0.502467 0.000000 0.000000 0.000000 27.493901 -5.972766 12.669911 0.000000 0.000000 0.000000 -0.298062 -10.620135 -19.003267 0.000000 -0.021650 0.059345 1.743606 -1.266654 15.254816 2.989809 -1.015016 7.183291 2.302350 -0.374643 -0.923810 -0.585045 4.090435 -6.016351 -3.398138 6.284121 14.989985 -0.544333 2.849318 5.606658 0.000000 0.000000 0.000000 4.214513 7.824241 -21.190248 30.826954 -41.591726 11.954798 -1.310077 -2.069280 -12.180345 0.000000 0.000000 0.000000 -7.125000 0.000000 0.000000 -24.911678 40.771693 -2.796458 0.000000 0.000000 0.000000 -17.203255 5.219671 43.128583 -25.753144 -36.963858 -8.738772 -9.408997 3.342184 15.281059 0.000000 0.000000 0.000000 7.125000 0.000000 0.000000 16.808272 44.776249 0.095626
-36.674933 17.577123 -3.723067 -19.983580 72.944981 -17.673097 0.000000 0.000000 0.000000 -9.638439 0.167118 -23.949783 3.716917 11.773874 34.936816 0.563210 -1.086969 -13.844234 0.000800 0.182975 0.502747 0.000000 0.000000 0.000000 27.475786 -5.997534 12.733431 0.000000 0.000000 0.000000 -0.295658 -10.639815 -18.997672 0.000000 -0.008392 0.023040 1.731191 -1.275271 15.253136 2.992864 -1.028134 7.180790 2.314555 -0.381583 -0.924878 -0.576197 4.086371 -5.997028 -3.409045 6.279749 14.996962 -0.549872 2.847258 5.606067 0.000000 0.000000 0.000000 4.221994 7.816154 -21.186926 30.832279 -41.596158 11.958282 -1.292083 -2.072386 -12.153628 0.000000 0.000000 0.000000 -7.125000 0.000000 0.000000 -24.887397 40.749059 -2.808338 0.000000 0.000000 0.000000 -17.159095 5.249807 43.121197 -25.752911 -36.963711 -8.738655 -9.450516 3.389689 15.268750 0.000000 0.000000 0.000000 7.125000 0.000000 0.000000 16.767285 44.769223 0.098395
